<svg xmlns="http://www.w3.org/2000/svg" viewBox="0 0 1024 1024" width="1024" height="1024">
  <defs>
    <linearGradient id="futu_g" x1="0%" y1="0%" x2="100%" y2="100%">
      <stop offset="0%" stop-color="#FF7A1A" />
      <stop offset="100%" stop-color="#E65100" />
    </linearGradient>
  </defs>
  <rect width="1024" height="1024" rx="220" fill="url(#futu_g)" />
  <path d="M220 380c-50-120 40-190 120-160 40 15 70 80 70 140-50-20-130-20-190 20z" fill="#FFFFFF" />
  <path d="M804 380c50-120-40-190-120-160-40 15-70 80-70 140 50-20 130-20 190 20z" fill="#FFFFFF" />
  <path d="M512 300c-160 0-250 110-250 250 0 140 100 250 250 250s250-110 250-250c0-140-90-250-250-250z" fill="#FFFFFF" />
  <ellipse cx="410" cy="510" rx="35" ry="45" fill="#E65100" />
  <ellipse cx="614" cy="510" rx="35" ry="45" fill="#E65100" />
  <circle cx="450" cy="670" r="22" fill="#E65100" />
  <circle cx="574" cy="670" r="22" fill="#E65100" />
  <text x="512" y="890" fill="#FFFFFF" font-size="70" font-weight="bold" text-anchor="middle" font-family="-apple-system, BlinkMacSystemFont, 'Segoe UI', Roboto, sans-serif">富途牛牛</text>
</svg>